<svg width="40" height="40" viewBox="0 0 40 40" fill="none" xmlns="http://www.w3.org/2000/svg">
<path d="M20.1666 30.9167L19.9999 31.0833L19.8166 30.9167C11.8999 23.7333 6.66659 18.9833 6.66659 14.1667C6.66659 10.8333 9.16658 8.33333 12.4999 8.33333C15.0666 8.33333 17.5666 10 18.4499 12.2667H21.5499C22.4333 10 24.9333 8.33333 27.4999 8.33333C30.8333 8.33333 33.3333 10.8333 33.3333 14.1667C33.3333 18.9833 28.0999 23.7333 20.1666 30.9167ZM27.4999 5C24.5999 5 21.8166 6.35 19.9999 8.46667C18.1833 6.35 15.3999 5 12.4999 5C7.36659 5 3.33325 9.01667 3.33325 14.1667C3.33325 20.45 8.99992 25.6 17.5833 33.3833L19.9999 35.5833L22.4166 33.3833C30.9999 25.6 36.6666 20.45 36.6666 14.1667C36.6666 9.01667 32.6333 5 27.4999 5Z" fill="white"/>
</svg>
