<svg width="30" height="31" viewBox="0 0 30 31" fill="none" xmlns="http://www.w3.org/2000/svg">
<g clip-path="url(#clip0_32_46)">
<path d="M8.7 0H21.3C26.1 0 30 4.03 30 8.99V22.01C30 24.3943 29.0834 26.6809 27.4518 28.3669C25.8203 30.0528 23.6074 31 21.3 31H8.7C3.9 31 0 26.97 0 22.01V8.99C0 6.6057 0.916605 4.31906 2.54817 2.63311C4.17974 0.947158 6.39262 0 8.7 0ZM8.4 3.1C6.96783 3.1 5.59432 3.68789 4.58162 4.73434C3.56893 5.7808 3 7.20009 3 8.68V22.32C3 25.4045 5.415 27.9 8.4 27.9H21.6C23.0322 27.9 24.4057 27.3121 25.4184 26.2657C26.4311 25.2192 27 23.7999 27 22.32V8.68C27 5.5955 24.585 3.1 21.6 3.1H8.4ZM22.875 5.425C23.3723 5.425 23.8492 5.62913 24.2008 5.99248C24.5525 6.35583 24.75 6.84864 24.75 7.3625C24.75 7.87636 24.5525 8.36917 24.2008 8.73252C23.8492 9.09587 23.3723 9.3 22.875 9.3C22.3777 9.3 21.9008 9.09587 21.5492 8.73252C21.1975 8.36917 21 7.87636 21 7.3625C21 6.84864 21.1975 6.35583 21.5492 5.99248C21.9008 5.62913 22.3777 5.425 22.875 5.425ZM15 7.75C16.9891 7.75 18.8968 8.56651 20.3033 10.0199C21.7098 11.4733 22.5 13.4446 22.5 15.5C22.5 17.5554 21.7098 19.5267 20.3033 20.9801C18.8968 22.4335 16.9891 23.25 15 23.25C13.0109 23.25 11.1032 22.4335 9.6967 20.9801C8.29018 19.5267 7.5 17.5554 7.5 15.5C7.5 13.4446 8.29018 11.4733 9.6967 10.0199C11.1032 8.56651 13.0109 7.75 15 7.75ZM15 10.85C13.8065 10.85 12.6619 11.3399 11.818 12.212C10.9741 13.084 10.5 14.2667 10.5 15.5C10.5 16.7333 10.9741 17.916 11.818 18.788C12.6619 19.6601 13.8065 20.15 15 20.15C16.1935 20.15 17.3381 19.6601 18.182 18.788C19.0259 17.916 19.5 16.7333 19.5 15.5C19.5 14.2667 19.0259 13.084 18.182 12.212C17.3381 11.3399 16.1935 10.85 15 10.85Z" fill="white"/>
</g>
<defs>
<clipPath id="clip0_32_46">
<rect width="30" height="31" fill="white"/>
</clipPath>
</defs>
</svg>
