<svg width="28" height="31" viewBox="0 0 28 31" fill="none" xmlns="http://www.w3.org/2000/svg">
<g clip-path="url(#clip0_32_48)">
<path fill-rule="evenodd" clip-rule="evenodd" d="M14 0C6.2685 0 0 6.93883 0 15.5C0 22.0668 3.69017 27.6752 8.89817 29.9331C8.77567 28.7073 8.66483 26.8266 8.94717 25.4885C9.2015 24.2782 10.5887 17.7837 10.5887 17.7837C10.5887 17.7837 10.1698 16.855 10.1698 15.4819C10.1698 13.3274 11.298 11.718 12.7027 11.718C13.8962 11.718 14.4737 12.7113 14.4737 13.9009C14.4737 15.23 13.7095 17.2179 13.314 19.0611C12.9838 20.6034 14.0128 21.8628 15.3872 21.8628C17.8757 21.8628 19.7878 18.9578 19.7878 14.765C19.7878 11.0541 17.3798 8.45912 13.9405 8.45912C9.9575 8.45912 7.6195 11.7671 7.6195 15.1848C7.6195 16.5165 8.08267 17.9464 8.66133 18.7214C8.77567 18.8751 8.792 19.0107 8.75817 19.167L8.36967 20.9237C8.30783 21.2079 8.16667 21.2686 7.90067 21.1317C6.15183 20.2301 5.05867 17.4 5.05867 15.1267C5.05867 10.2378 8.267 5.74662 14.3092 5.74662C19.166 5.74662 22.9402 9.579 22.9402 14.6992C22.9402 20.0415 19.8987 24.3402 15.6753 24.3402C14.2567 24.3402 12.9232 23.5251 12.467 22.5602L11.5943 26.2454C11.2782 27.5926 10.4253 29.2808 9.85367 30.309C11.165 30.7572 12.5568 31 14 31C21.7315 31 28 24.0599 28 15.5C28 6.93883 21.7315 0 14 0V0Z" fill="white"/>
</g>
<defs>
<clipPath id="clip0_32_48">
<rect width="28" height="31" fill="white"/>
</clipPath>
</defs>
</svg>
