<svg width="26" height="24" viewBox="0 0 26 24" fill="none" xmlns="http://www.w3.org/2000/svg">
<g clip-path="url(#clip0_32_17)">
<path d="M10.1739 0.00653076C4.5641 0.00653076 0 4.21817 0 9.3947C0 14.5712 4.5641 18.7829 10.1739 18.7829C12.5077 18.7829 14.6539 18.0461 16.3724 16.8219L23.7666 23.645C24.2775 24.1165 25.1058 24.1165 25.6168 23.645C26.1277 23.1735 26.1277 22.4092 25.6168 21.9377L18.2226 15.1146C19.5493 13.5288 20.3477 11.5483 20.3477 9.3947C20.3477 4.21817 15.7836 0.00653076 10.1739 0.00653076ZM10.1739 2.09279C14.5367 2.09279 18.0869 5.36874 18.0869 9.3947C18.0869 13.4207 14.5367 16.6966 10.1739 16.6966C5.81097 16.6966 2.26086 13.4207 2.26086 9.3947C2.26086 5.36874 5.81097 2.09279 10.1739 2.09279Z" fill="white"/>
</g>
<defs>
<clipPath id="clip0_32_17">
<rect width="26" height="24" fill="white"/>
</clipPath>
</defs>
</svg>
