<svg width="33" height="31" viewBox="0 0 33 31" fill="none" xmlns="http://www.w3.org/2000/svg">
<g clip-path="url(#clip0_32_50)">
<path fill-rule="evenodd" clip-rule="evenodd" d="M25.2781 29.4228C25.7208 29.7173 26.2914 29.7909 26.8002 29.6101C27.3089 29.428 27.6829 29.0198 27.7957 28.5251C28.9906 23.2499 31.8891 9.89799 32.9767 5.09945C33.0592 4.73778 32.9217 4.36191 32.6192 4.12036C32.3167 3.87882 31.8973 3.80907 31.5233 3.93953C25.7579 5.9442 8.00256 12.2023 0.745309 14.7249C0.284684 14.8851 -0.0150662 15.301 5.87676e-05 15.757C0.0165588 16.2142 0.343809 16.6108 0.815434 16.7438C4.07006 17.6583 8.34218 18.9306 8.34218 18.9306C8.34218 18.9306 10.3387 24.5946 11.3796 27.475C11.5102 27.8367 11.8113 28.1208 12.2087 28.219C12.6047 28.3159 13.0282 28.2138 13.3238 27.9516C14.9958 26.4688 17.5808 24.1761 17.5808 24.1761C17.5808 24.1761 22.4923 27.5589 25.2781 29.4228V29.4228ZM10.1393 18.215L12.4479 25.3683L12.9608 20.8384C12.9608 20.8384 21.8804 13.2809 26.9652 8.97316C27.1137 8.84657 27.1343 8.63474 27.0106 8.4862C26.8882 8.33766 26.6627 8.30278 26.4936 8.40353C20.6003 11.9388 10.1393 18.215 10.1393 18.215Z" fill="white"/>
</g>
<defs>
<clipPath id="clip0_32_50">
<rect width="33" height="31" fill="white"/>
</clipPath>
</defs>
</svg>
