<svg width="30" height="31" viewBox="0 0 30 31" fill="none" xmlns="http://www.w3.org/2000/svg">
<path d="M30 5.62259C28.9418 6.15445 27.8011 6.50396 26.6193 6.67112C27.8286 5.86573 28.7631 4.58926 29.2029 3.05445C28.0623 3.81426 26.7979 4.34612 25.4649 4.65004C24.3792 3.34318 22.8537 2.58337 21.1221 2.58337C17.8926 2.58337 15.2539 5.50102 15.2539 9.10249C15.2539 9.61916 15.3089 10.1206 15.4051 10.5917C10.5127 10.3182 6.15619 7.71965 3.25645 3.78386C2.74797 4.74122 2.45937 5.86573 2.45937 7.05102C2.45937 9.31524 3.49008 11.3211 5.08425 12.4608C4.10851 12.4608 3.20148 12.1569 2.4044 11.701C2.4044 11.701 2.4044 11.701 2.4044 11.7466C2.4044 14.9074 4.43834 17.5515 7.13193 18.1442C6.63719 18.2961 6.11496 18.3721 5.57899 18.3721C5.20794 18.3721 4.83688 18.3265 4.47957 18.2505C5.22168 20.8187 7.3793 22.7334 9.9767 22.779C7.97024 24.5417 5.42782 25.575 2.65177 25.575C2.18451 25.575 1.71726 25.5446 1.25 25.4839C3.86114 27.3378 6.96702 28.4167 10.2928 28.4167C21.1221 28.4167 27.0728 18.4785 27.0728 9.8623C27.0728 9.57357 27.0728 9.30004 27.059 9.01131C28.2134 8.09955 29.2029 6.94465 30 5.62259Z" fill="white"/>
</svg>
