<svg width="35" height="31" viewBox="0 0 35 31" fill="none" xmlns="http://www.w3.org/2000/svg">
<g clip-path="url(#clip0_32_52)">
<path d="M19.1946 24.534C20.0827 24.534 20.4458 24.0095 20.4356 23.3521C20.3904 20.876 21.4769 19.543 23.4383 21.2802C25.6083 23.2022 26.0575 24.534 28.6927 24.534H33.3594C34.5377 24.534 35.0015 24.1981 35.0015 23.6711C35.0015 22.5564 32.9292 20.5892 31.1733 19.1451C28.7146 17.1237 28.5994 17.0759 30.7169 14.6424C33.3433 11.6212 36.7792 7.75004 33.74 7.75004H27.9344C26.8085 7.75004 26.7269 8.31192 26.3258 9.14892C24.8748 12.1805 22.1171 16.1071 21.07 15.5065C19.9748 14.88 20.4765 12.3987 20.5596 8.71104C20.5815 7.73712 20.5756 7.06933 18.8956 6.72317C17.9783 6.53587 17.0858 6.45837 16.2575 6.45837C12.9427 6.45837 10.656 7.68933 11.9554 7.90375C14.2465 8.28221 14.0263 12.6726 13.4925 14.5687C12.5621 17.8702 9.065 11.9544 7.60813 9.00812C7.25667 8.30029 7.14875 7.75004 5.89458 7.75004H1.14771C0.430208 7.75004 0 7.95671 0 8.41654C0 9.19412 4.31667 17.0965 8.43792 21.0361C12.4571 24.8788 16.4296 24.534 19.1946 24.534V24.534Z" fill="white"/>
</g>
<defs>
<clipPath id="clip0_32_52">
<rect width="35" height="31" fill="white"/>
</clipPath>
</defs>
</svg>
