<svg width="32" height="31" viewBox="0 0 32 31" fill="none" xmlns="http://www.w3.org/2000/svg">
<path d="M12.8 20.4286L21.104 15.5L12.8 10.5714V20.4286ZM31.296 7.565C31.504 8.33714 31.648 9.37214 31.744 10.6864C31.856 12.0007 31.904 13.1343 31.904 14.12L32 15.5C32 19.0979 31.744 21.7429 31.296 23.435C30.896 24.9136 29.968 25.8664 28.528 26.2771C27.776 26.4907 26.4 26.6386 24.288 26.7371C22.208 26.8521 20.304 26.9014 18.544 26.9014L16 27C9.296 27 5.12 26.7371 3.472 26.2771C2.032 25.8664 1.104 24.9136 0.704 23.435C0.496 22.6629 0.352 21.6279 0.256 20.3136C0.144 18.9993 0.0959999 17.8657 0.0959999 16.88L0 15.5C0 11.9021 0.256 9.25714 0.704 7.565C1.104 6.08643 2.032 5.13357 3.472 4.72286C4.224 4.50929 5.6 4.36143 7.712 4.26286C9.792 4.14786 11.696 4.09857 13.456 4.09857L16 4C22.704 4 26.88 4.26286 28.528 4.72286C29.968 5.13357 30.896 6.08643 31.296 7.565Z" fill="white"/>
</svg>
